<svg xmlns="http://www.w3.org/2000/svg" width="256" height="256" viewBox="0 0 256 256" role="img" aria-label="Helatte icon">
  <defs>
    <linearGradient id="helatte-bg" x1="36" y1="24" x2="220" y2="232" gradientUnits="userSpaceOnUse">
      <stop offset="0%" stop-color="#fbe3ef"/>
      <stop offset="52%" stop-color="#f8bfd8"/>
      <stop offset="100%" stop-color="#b8ddf1"/>
    </linearGradient>
    <linearGradient id="helatte-hair" x1="94" y1="55" x2="171" y2="129" gradientUnits="userSpaceOnUse">
      <stop offset="0%" stop-color="#7f4369"/>
      <stop offset="100%" stop-color="#5d284d"/>
    </linearGradient>
  </defs>

  <rect width="256" height="256" rx="68" fill="url(#helatte-bg)"/>
  <circle cx="128" cy="128" r="90" fill="#fffaf6" opacity=".92"/>

  <path
    d="M90 98c0-28 17-48 38-48 13 0 25 7 33 19 3 5 6 12 6 21 8 2 14 10 14 21 0 14-10 26-24 26H102c-18 0-32-16-32-35 0-13 8-24 20-29Z"
    fill="url(#helatte-hair)"
  />
  <path
    d="M154 84c8 4 14 13 14 24 0 16-12 29-28 29H98c-12 0-20-8-23-18 4 31 26 58 53 58 30 0 55-34 55-69 0-13-4-24-10-33-2 3-6 6-11 9-2-1-5-1-8 0Z"
    fill="#6d3659"
    opacity=".22"
  />

  <path
    d="M83 129c0-34 20-61 45-61s45 27 45 61c0 37-22 67-50 67-22 0-40-24-40-53v-14Z"
    fill="#ffd9c7"
  />
  <path
    d="M123 67c-19 3-35 23-39 48 3-10 10-17 19-21 10-4 17-12 23-20 7 10 17 18 28 21 10 3 18 12 21 24-2-29-20-51-44-52h-8Z"
    fill="url(#helatte-hair)"
  />

  <circle cx="111" cy="132" r="6" fill="#6d3659"/>
  <circle cx="145" cy="132" r="6" fill="#6d3659"/>
  <path d="M114 156c9 7 19 7 28 0" fill="none" stroke="#bf6f8b" stroke-linecap="round" stroke-width="8"/>
  <circle cx="95" cy="148" r="8" fill="#f4a3bc" opacity=".55"/>
  <circle cx="161" cy="148" r="8" fill="#f4a3bc" opacity=".55"/>

  <path
    d="M81 194c10-18 28-29 47-29s37 11 47 29v10H81v-10Z"
    fill="#8f4471"
  />
  <path d="M108 93c-10-8-18-9-27-5 3-13 12-24 27-28l6 14-6 19Z" fill="#f7bfd0"/>
  <circle cx="100" cy="82" r="10" fill="#ffd56c"/>
  <path d="M100 68l3 7h8l-7 5 3 8-7-5-7 5 3-8-7-5h8z" fill="#fff4b7"/>
</svg>
