<svg xmlns="http://www.w3.org/2000/svg" width="256" height="256" viewBox="0 0 256 256" role="img" aria-label="Las Purepechas icon">
  <defs>
    <linearGradient id="purepechas-bg" x1="34" y1="22" x2="222" y2="236" gradientUnits="userSpaceOnUse">
      <stop offset="0%" stop-color="#ffe59f"/>
      <stop offset="48%" stop-color="#ffc86f"/>
      <stop offset="100%" stop-color="#ef9bc7"/>
    </linearGradient>
    <linearGradient id="bird-wing" x1="80" y1="96" x2="159" y2="164" gradientUnits="userSpaceOnUse">
      <stop offset="0%" stop-color="#d04f9a"/>
      <stop offset="100%" stop-color="#8b2f7a"/>
    </linearGradient>
    <linearGradient id="bird-body" x1="124" y1="87" x2="192" y2="180" gradientUnits="userSpaceOnUse">
      <stop offset="0%" stop-color="#f7f7f2"/>
      <stop offset="100%" stop-color="#d4fff5"/>
    </linearGradient>
  </defs>

  <rect width="256" height="256" rx="68" fill="url(#purepechas-bg)"/>
  <circle cx="128" cy="128" r="90" fill="#fffaf0" opacity=".9"/>

  <path
    d="M80 151c18-42 53-69 95-74-7 10-9 21-7 33 16 4 29 12 39 26-21-4-43-1-63 7 3 9 3 20-2 31-11-16-27-24-48-23-6 0-11 0-14 0Z"
    fill="url(#bird-wing)"
  />
  <path
    d="M149 92c18 6 31 17 39 33-16-2-30 1-44 8 5 15 5 31-1 47-9-13-21-21-37-25-3-16 2-32 15-46 9-10 18-15 28-17Z"
    fill="#ffbf54"
    opacity=".72"
  />
  <path
    d="M127 116c14-16 33-23 55-22-13 11-21 22-24 36 13 5 23 13 31 24-16-2-30 0-42 7-2 12-8 22-17 30-9-10-13-22-12-37-14 1-26 5-37 13 6-14 16-25 31-33-2-7-1-13 3-18 4 1 8 1 12 0Z"
    fill="url(#bird-body)"
  />

  <circle cx="162" cy="115" r="5" fill="#503129"/>
  <path d="M183 112c16-4 27-4 35 1-9 4-21 7-37 10l2-11Z" fill="#7b3f00"/>
  <path d="M114 179c10 6 20 8 30 5-7 10-17 17-31 20l1-25Z" fill="#2f9c9c"/>
  <path d="M92 143c-16-3-29 0-40 11 6-17 18-28 37-34l3 23Z" fill="#7fc9c8"/>
  <path d="M96 98c9 2 18 6 27 14-14 1-26 5-37 13 1-10 5-19 10-27Z" fill="#f7e2f0"/>
</svg>
